<svg width="12" height="12" viewBox="0 0 12 12" fill="none" xmlns="http://www.w3.org/2000/svg">
<path fill-rule="evenodd" clip-rule="evenodd" d="M12 0H0V12H12V0ZM1.125 6C1.125 3.312 3.312 1.125 6 1.125C8.688 1.125 10.875 3.312 10.875 6C10.875 8.688 8.688 10.875 6 10.875C3.312 10.875 1.125 8.688 1.125 6ZM10.125 6C10.125 3.72563 8.27437 1.875 6 1.875C3.80696 1.875 2.01333 3.59698 1.88745 5.75903L3.83716 6.59473C4.02341 6.45807 4.25126 6.375 4.5 6.375C4.50635 6.375 4.51246 6.37592 4.51859 6.37684C4.52404 6.37766 4.5295 6.37849 4.53516 6.37866L5.63159 4.81201C5.66497 4.01326 6.318 3.375 7.125 3.375C7.95337 3.375 8.625 4.04663 8.625 4.875C8.625 5.682 7.98674 6.33539 7.18799 6.36914L5.62134 7.46484C5.62151 7.47026 5.62232 7.47565 5.62313 7.48108C5.62406 7.48731 5.625 7.49359 5.625 7.5C5.625 8.12138 5.12138 8.625 4.5 8.625C3.92172 8.625 3.45073 8.18734 3.38745 7.62598L2.0127 7.03711C2.47446 8.81033 4.08431 10.125 6 10.125C8.27437 10.125 10.125 8.27437 10.125 6ZM8.25 4.875C8.25 4.25362 7.74638 3.75 7.125 3.75C6.50362 3.75 6 4.25362 6 4.875C6 5.49638 6.50362 6 7.125 6C7.74638 6 8.25 5.49638 8.25 4.875ZM6.59467 4.34467C6.73532 4.20402 6.92609 4.125 7.125 4.125C7.32391 4.125 7.51468 4.20402 7.65533 4.34467C7.79598 4.48532 7.875 4.67609 7.875 4.875C7.875 5.07391 7.79598 5.26468 7.65533 5.40533C7.51468 5.54598 7.32391 5.625 7.125 5.625C6.92609 5.625 6.73532 5.54598 6.59467 5.40533C6.45402 5.26468 6.375 5.07391 6.375 4.875C6.375 4.67609 6.45402 4.48532 6.59467 4.34467ZM5.25 7.5C5.25 7.08563 4.91437 6.75 4.5 6.75C4.42377 6.75 4.35177 6.76477 4.28247 6.78589L4.55566 6.90308C4.84141 7.02533 4.97381 7.35598 4.85156 7.64136C4.76006 7.85473 4.55199 7.98267 4.33374 7.98267C4.25987 7.98267 4.18455 7.96765 4.11255 7.93652L3.81885 7.81055C3.93704 8.06943 4.1967 8.25 4.5 8.25C4.91437 8.25 5.25 7.91437 5.25 7.5Z" fill="black"/>
</svg>
