<svg width="12" height="12" viewBox="0 0 12 12" fill="none" xmlns="http://www.w3.org/2000/svg">
<path fill-rule="evenodd" clip-rule="evenodd" d="M12 0H0V12H12V0ZM7.144 2.95167C7.71567 3.05033 8.26233 3.22267 8.77233 3.45667C8.77667 3.45833 8.78067 3.46167 8.78233 3.46633C9.68567 4.795 10.1317 6.294 9.965 8.01967C9.96433 8.027 9.96067 8.03367 9.95467 8.038C9.27067 8.54033 8.60767 8.84533 7.954 9.04767C7.94367 9.05067 7.93233 9.047 7.926 9.038C7.775 8.828 7.63767 8.60633 7.51767 8.37367C7.511 8.36 7.517 8.34333 7.53133 8.338C7.74933 8.256 7.95633 8.15733 8.15567 8.041C8.17167 8.03167 8.17267 8.009 8.158 7.99833C8.11567 7.967 8.07367 7.934 8.03367 7.901C8.026 7.89467 8.016 7.89367 8.00733 7.89767C6.71367 8.49533 5.29633 8.49533 3.987 7.89767C3.97833 7.89367 3.96833 7.895 3.961 7.901C3.921 7.934 3.879 7.96667 3.837 7.998C3.82267 8.009 3.824 8.03133 3.83967 8.04067C4.039 8.15467 4.246 8.25533 4.46367 8.338C4.478 8.34333 4.48467 8.35967 4.47767 8.37333C4.36 8.60633 4.223 8.828 4.069 9.038C4.06233 9.04667 4.05133 9.05067 4.041 9.04733C3.39033 8.84533 2.72767 8.54033 2.04333 8.03767C2.03767 8.03333 2.03367 8.02633 2.033 8.019C1.89367 6.52633 2.178 5.015 3.215 3.46567C3.21733 3.46167 3.22133 3.45833 3.22567 3.45667C3.736 3.22233 4.28267 3.05 4.854 2.95167C4.86433 2.95 4.87467 2.95467 4.88033 2.964C4.95067 3.089 5.03167 3.24933 5.086 3.38033C5.68833 3.28833 6.3 3.28833 6.915 3.38033C6.96933 3.25233 7.04733 3.089 7.11767 2.964C7.12333 2.95467 7.13367 2.94967 7.144 2.95167ZM3.95433 6.304C3.95433 6.74833 4.279 7.11033 4.67333 7.11033C5.07367 7.11033 5.39233 6.74867 5.39233 6.304C5.39867 5.86267 5.077 5.49767 4.67333 5.49767C4.27267 5.49767 3.95433 5.85967 3.95433 6.304ZM6.61267 6.304C6.61267 6.74833 6.93767 7.11033 7.33167 7.11033C7.73533 7.11033 8.05067 6.74867 8.05067 6.304C8.057 5.86267 7.73533 5.49767 7.33167 5.49767C6.931 5.49767 6.61267 5.85967 6.61267 6.304Z" fill="black"/>
</svg>
