<svg width="12" height="12" viewBox="0 0 12 12" fill="none" xmlns="http://www.w3.org/2000/svg">
<path fill-rule="evenodd" clip-rule="evenodd" d="M12 0H0V12H12V0ZM7.575 4.67333C8.11433 5.06067 8.77533 5.28867 9.48833 5.28867L9.488 3.91367C9.104 3.91367 8.746 3.79933 8.446 3.60367C8.015 3.32267 7.704 2.873 7.607 2.349C7.58633 2.23567 7.57467 2.11933 7.57467 2H6.19933L6.19833 7.51167C6.175 8.129 5.667 8.62433 5.04433 8.62433C4.85067 8.62433 4.66833 8.576 4.508 8.49167C4.14 8.298 3.888 7.91233 3.888 7.46833C3.888 6.83067 4.40667 6.312 5.044 6.312C5.163 6.312 5.277 6.33167 5.385 6.36533V5.287V4.96133C5.27333 4.94633 5.16 4.93667 5.044 4.93667C3.648 4.93667 2.51233 6.07233 2.51233 7.46833C2.51233 8.32467 2.94033 9.08267 3.593 9.541C4.004 9.82967 4.50433 9.99967 5.04367 9.99967C6.43933 9.99967 7.575 8.86433 7.575 7.46833V4.67333Z" fill="black"/>
</svg>
