<svg xmlns="http://www.w3.org/2000/svg" width="22" height="22" viewBox="0 0 22 22" fill="none">
  <path fill-rule="evenodd" clip-rule="evenodd"
    d="M8.45739 7C8.45739 7 8.45739 7 8.45739 7C9.027 7 9.59338 7.16921 10.1846 7.65383C10.4963 7.9091 10.8179 8.24404 11.1637 8.68349C11.4446 8.30258 11.7477 7.94235 12.0737 7.65696C12.5563 7.23475 13.0765 7.00021 13.6002 7.00021C14.4795 7.00021 15.317 7.51161 15.958 8.47076C16.6595 9.52113 17 10.8442 17 12.2095L17 12.2095C17 12.236 16.9998 12.2623 16.9995 12.2883C16.9985 12.362 16.9962 12.4339 16.9926 12.504C16.9584 13.1685 16.8067 13.6767 16.5693 14.089C16.3073 14.5447 15.7965 15 14.9373 15V14.9998C14.4031 14.9998 13.9299 14.8834 13.4066 14.3879C13.0045 14.0076 12.534 13.332 12.1722 12.7247L11.096 10.9204C11.0653 10.8689 11.0347 10.8182 11.0043 10.7682C10.9737 10.8227 10.9427 10.8777 10.9115 10.9333L10.5334 11.6055C9.77398 12.9573 9.58156 13.2651 9.20181 13.773C8.53625 14.6625 7.96785 14.9998 7.21966 14.9998C6.33203 14.9998 5.77077 14.614 5.42313 14.0327C5.4187 14.0253 5.4143 14.0178 5.40994 14.0104C5.3794 13.9581 5.35058 13.904 5.32348 13.8482C5.10672 13.4023 5 12.8489 5 12.2292C5 12.2292 5 12.2292 5 12.2292C5 10.9413 5.35221 9.59891 6.02199 8.56227C6.61622 7.64293 7.4738 7 8.45739 7ZM7.12576 9.22028C7.12576 9.22029 7.12576 9.22028 7.12576 9.22028C6.6112 9.99973 6.29639 11.1607 6.29639 12.2757C6.29639 12.7356 6.39692 13.0886 6.52841 13.3022L6.52823 13.3023C6.70059 13.582 6.95761 13.7008 7.21966 13.7008C7.55764 13.7008 7.86687 13.6166 8.46276 12.7893C8.7994 12.322 9.17822 11.7216 9.50505 11.2035L9.5051 11.2035C9.64187 10.9867 9.76954 10.7844 9.8812 10.6122L10.3915 9.82538C10.1423 9.46926 9.92796 9.19825 9.77399 9.03393C9.46556 8.7051 9.06912 8.30806 8.43648 8.30806C8.43648 8.30806 8.43648 8.30806 8.43648 8.30806C8.43248 8.30806 8.42848 8.30808 8.4245 8.30812C8.36464 8.30878 8.30584 8.31438 8.24809 8.32463C7.81688 8.4012 7.44415 8.73762 7.12576 9.22028ZM12.3809 10.4941C12.161 10.1265 11.9522 9.79579 11.7525 9.49832C11.788 9.44297 11.8235 9.38894 11.8588 9.33628C12.4192 8.49997 12.9179 8.03079 13.5376 8.03079C14.1106 8.03079 14.6314 8.41108 15.0332 9.03348C15.5995 9.91095 15.8566 11.1389 15.8566 12.2455C15.8566 13.022 15.673 13.7006 14.9373 13.7006V13.7006C14.6472 13.7006 14.424 13.585 14.1052 13.1972C13.8573 12.8952 13.4337 12.2548 12.6893 11.01L12.3809 10.4941Z"
    fill="black" />
  <path
    d="M11 21C16.5228 21 21 16.5228 21 11C21 5.47715 16.5228 1 11 1C5.47715 1 1 5.47715 1 11C1 16.5228 5.47715 21 11 21Z"
    stroke="black" stroke-opacity="0.2" stroke-width="0.5" stroke-miterlimit="10" />
</svg>